<?xml version="1.0" standalone="no"?>
<!DOCTYPE svg PUBLIC "-//W3C//DTD SVG 20010904//EN"
 "http://www.w3.org/TR/2001/REC-SVG-20010904/DTD/svg10.dtd">
<svg version="1.0" xmlns="http://www.w3.org/2000/svg"
 width="500.000000pt" height="500.000000pt" viewBox="0 0 500.000000 500.000000"
 preserveAspectRatio="xMidYMid meet">
<metadata>
Created by potrace 1.14, written by Peter Selinger 2001-2017
</metadata>
<g transform="translate(0.000000,500.000000) scale(0.100000,-0.100000)"
fill="#000000" stroke="none">
<path d="M2294 3705 c-38 -16 -1273 -1254 -1289 -1292 -13 -30 -11 -84 4 -110
19 -35 1266 -1273 1290 -1281 35 -12 87 -7 116 12 13 8 303 295 644 637 669
670 657 656 632 732 -9 27 -166 190 -636 661 -344 344 -635 630 -647 637 -32
17 -79 19 -114 4z"/>
<path d="M1418 3388 c-39 -8 -98 -67 -99 -100 -2 -56 -4 -388 -2 -388 3 0 493
491 493 494 0 5 -364 0 -392 -6z"/>
<path d="M2883 3393 c13 -14 490 -493 492 -493 0 0 1 90 0 199 -1 194 -2 200
-26 235 -38 55 -61 61 -276 61 -105 0 -191 -1 -190 -2z"/>
<path d="M3135 1591 c-132 -132 -241 -243 -242 -248 -2 -5 83 -8 189 -8 291 1
291 2 293 297 1 109 1 198 0 198 0 0 -108 -108 -240 -239z"/>
<path d="M1318 1803 c-2 -10 -3 -95 -2 -188 2 -275 6 -278 296 -280 170 -1
195 1 185 14 -20 23 -467 471 -471 471 -2 0 -5 -8 -8 -17z"/>
</g>
</svg>
